<svg xmlns="http://www.w3.org/2000/svg" viewBox="0 0 1200 800" width="1200" height="800">
  <defs>
    <linearGradient id="abBgLight" x1="0%" y1="0%" x2="100%" y2="100%">
      <stop offset="0%" stop-color="#F8FAFC" />
      <stop offset="100%" stop-color="#EDF4F9" />
    </linearGradient>
  </defs>
  <rect width="1200" height="800" fill="url(#abBgLight)" />
  
  <g opacity="0.12" stroke="#005691" stroke-width="1">
    <line x1="0" y1="200" x2="1200" y2="200" />
    <line x1="0" y1="400" x2="1200" y2="400" />
    <line x1="0" y1="600" x2="1200" y2="600" />
    <line x1="300" y1="0" x2="300" y2="800" />
    <line x1="600" y1="0" x2="600" y2="800" />
    <line x1="900" y1="0" x2="900" y2="800" />
  </g>

  <g transform="translate(200, 150)">
    <rect x="0" y="0" width="800" height="500" rx="16" fill="#FFFFFF" stroke="rgba(0, 86, 145, 0.3)" stroke-width="2" />
    
    <rect x="0" y="0" width="800" height="50" rx="16" fill="rgba(0, 86, 145, 0.08)" />
    <circle cx="30" cy="25" r="7" fill="#E11D48" />
    <circle cx="55" cy="25" r="7" fill="#F59E0B" />
    <circle cx="80" cy="25" r="7" fill="#005691" />
    <text x="120" y="30" fill="#0B1B36" font-family="sans-serif" font-size="13" font-weight="bold" letter-spacing="1">ALPHA MATRIX • DEFENSE &amp; SURVEILLANCE INTEGRATION LAB</text>

    <rect x="40" y="80" width="220" height="170" rx="8" fill="#F8FAFC" stroke="rgba(0, 86, 145, 0.2)" />
    <text x="55" y="110" fill="#005691" font-family="sans-serif" font-size="11" font-weight="bold">OPTICAL SURVEILLANCE</text>
    <path d="M60,180 L110,140 L160,170 L230,130" stroke="#005691" stroke-width="2" fill="none" />
    <circle cx="230" cy="130" r="4" fill="#005691" />

    <rect x="290" y="80" width="220" height="170" rx="8" fill="#F8FAFC" stroke="rgba(0, 86, 145, 0.2)" />
    <text x="305" y="110" fill="#005691" font-family="sans-serif" font-size="11" font-weight="bold">RADAR TELEMETRY</text>
    <circle cx="400" cy="170" r="45" fill="none" stroke="#005691" stroke-width="1.5" stroke-dasharray="4 4" />
    <circle cx="400" cy="170" r="25" fill="none" stroke="#005691" stroke-width="1.5" />
    <line x1="400" y1="170" x2="435" y2="135" stroke="#E11D48" stroke-width="2" />

    <rect x="540" y="80" width="220" height="170" rx="8" fill="#F8FAFC" stroke="rgba(0, 86, 145, 0.2)" />
    <text x="555" y="110" fill="#005691" font-family="sans-serif" font-size="11" font-weight="bold">CYBER DEFENSE SHIELD</text>
    <polygon points="650,130 685,150 685,190 650,210 615,190 615,150" fill="none" stroke="#005691" stroke-width="2" />
    <text x="635" y="175" fill="#005691" font-family="sans-serif" font-size="12" font-weight="bold">SEC</text>

    <rect x="40" y="280" width="720" height="180" rx="8" fill="#F8FAFC" stroke="rgba(0, 86, 145, 0.2)" />
    <text x="65" y="320" fill="#0B1B36" font-family="sans-serif" font-size="14" font-weight="bold">REAL-TIME GLOBAL INFRASTRUCTURE HEALTH</text>
    
    <g transform="translate(65, 350)">
      <text x="0" y="0" fill="#5A6E7F" font-family="sans-serif" font-size="11">BORDER PERIMETER SENSORS (LATENCY 1.2ms)</text>
      <rect x="0" y="10" width="670" height="8" rx="4" fill="rgba(0, 86, 145, 0.1)" />
      <rect x="0" y="10" width="640" height="8" rx="4" fill="#005691" />
    </g>
    <g transform="translate(65, 400)">
      <text x="0" y="0" fill="#5A6E7F" font-family="sans-serif" font-size="11">ENCRYPTED DEFENSE DATA STREAM</text>
      <rect x="0" y="10" width="670" height="8" rx="4" fill="rgba(0, 86, 145, 0.1)" />
      <rect x="0" y="10" width="660" height="8" rx="4" fill="#0B1B36" />
    </g>
  </g>
</svg>